<?xml version="1.0" encoding="utf-8"?>
<svg id="Layer_1" data-name="Layer 1" viewBox="0 0 128 128" xmlns="http://www.w3.org/2000/svg">
  <defs>
    <style>.cls-1{fill:#d7d7d6;}.cls-2{fill:none;stroke:#d7d7d6;stroke-miterlimit:10;stroke-width:3px;}</style>
  </defs>
  <title>ICONS</title>
  <path class="cls-1" d="M95.28,35.3a74.43,74.43,0,0,0-18.37-5.7.28.28,0,0,0-.3.14,50.73,50.73,0,0,0-2.28,4.7,68.66,68.66,0,0,0-20.64,0,47.66,47.66,0,0,0-2.32-4.7.3.3,0,0,0-.3-.14,74.5,74.5,0,0,0-18.38,5.7.38.38,0,0,0-.12.1C20.87,52.89,17.66,69.94,19.24,86.78a.31.31,0,0,0,.11.22A75,75,0,0,0,41.89,98.39a.3.3,0,0,0,.32-.1,53,53,0,0,0,4.61-7.5.29.29,0,0,0-.12-.39h0a48.32,48.32,0,0,1-7-3.36.28.28,0,0,1-.11-.39.34.34,0,0,1,.08-.09c.47-.35.94-.72,1.4-1.1a.27.27,0,0,1,.29,0,53.43,53.43,0,0,0,45.37,0,.28.28,0,0,1,.29,0c.45.37.92.75,1.4,1.1a.3.3,0,0,1,.06.41.27.27,0,0,1-.08.07,45.94,45.94,0,0,1-7,3.35.29.29,0,0,0-.16.38v0a59,59,0,0,0,4.61,7.49.29.29,0,0,0,.31.11A74.59,74.59,0,0,0,108.63,87a.28.28,0,0,0,.12-.2c1.88-19.47-3.15-36.39-13.35-51.38a.19.19,0,0,0-.12-.11ZM49,76.52c-4.45,0-8.11-4.08-8.11-9.09s3.59-9.1,8.11-9.1,8.19,4.12,8.11,9.1S53.55,76.52,49,76.52Zm30,0c-4.45,0-8.12-4.08-8.12-9.09s3.6-9.1,8.12-9.1,8.18,4.12,8.11,9.1S83.58,76.52,79,76.52Z"/>
  <polygon class="cls-2" points="8.68 9.01 8.68 103.14 24.53 118.99 119.32 118.99 119.32 24.86 103.47 9.01 8.68 9.01"/>
  <polygon class="cls-1" points="7.19 109.63 7.19 120.53 18.86 120.53 7.19 109.63"/>
  <polygon class="cls-1" points="120.81 18.42 120.81 7.52 109.14 7.52 120.81 18.42"/>
</svg>