<?xml version="1.0" encoding="utf-8"?>
<svg id="Layer_1" data-name="Layer 1" viewBox="0 0 128 128" xmlns="http://www.w3.org/2000/svg">
  <defs>
    <style>.cls-1{fill:#d7d7d6;}.cls-2{fill:none;stroke:#d7d7d6;stroke-miterlimit:10;stroke-width:3px;}</style>
  </defs>
  <title>ICONS</title>
  <path class="cls-1" d="M95.28,35.3a74.43,74.43,0,0,0-18.37-5.7.28.28,0,0,0-.3.14,50.73,50.73,0,0,0-2.28,4.7,68.66,68.66,0,0,0-20.64,0,47.66,47.66,0,0,0-2.32-4.7.3.3,0,0,0-.3-.14,74.5,74.5,0,0,0-18.38,5.7.38.38,0,0,0-.12.1C20.87,52.89,17.66,69.94,19.24,86.78a.31.31,0,0,0,.11.22A75,75,0,0,0,41.89,98.39a.3.3,0,0,0,.32-.1,53,53,0,0,0,4.61-7.5.29.29,0,0,0-.12-.39h0a48.32,48.32,0,0,1-7-3.36.28.28,0,0,1-.11-.39.34.34,0,0,1,.08-.09c.47-.35.94-.72,1.4-1.1a.27.27,0,0,1,.29,0,53.43,53.43,0,0,0,45.37,0,.28.28,0,0,1,.29,0c.45.37.92.75,1.4,1.1a.3.3,0,0,1,.06.41.27.27,0,0,1-.08.07,45.94,45.94,0,0,1-7,3.35.29.29,0,0,0-.16.38v0a59,59,0,0,0,4.61,7.49.29.29,0,0,0,.31.11A74.59,74.59,0,0,0,108.63,87a.28.28,0,0,0,.12-.2c1.88-19.47-3.15-36.39-13.35-51.38a.19.19,0,0,0-.12-.11ZM49,76.52c-4.45,0-8.11-4.08-8.11-9.09s3.59-9.1,8.11-9.1,8.19,4.12,8.11,9.1S53.55,76.52,49,76.52Zm30,0c-4.45,0-8.12-4.08-8.12-9.09s3.6-9.1,8.12-9.1,8.18,4.12,8.11,9.1S83.58,76.52,79,76.52Z"/>
  <polygon class="cls-2" points="8.68 9.01 8.68 103.14 24.53 118.99 119.32 118.99 119.32 24.86 103.47 9.01 8.68 9.01" style="fill: rgba(255, 176, 41, 0.31);"/>
  <polygon class="cls-1" points="7.19 109.63 7.19 120.53 18.86 120.53 7.19 109.63" style="fill: rgba(255, 176, 41, 0.76);"/>
  <polygon class="cls-1" points="120.81 18.42 120.81 7.52 109.14 7.52 120.81 18.42" style="fill: rgba(255, 176, 41, 0.74);"/>
  <path class="cls-1" d="M 95.165 34.96 C 89.314 32.274 83.139 30.358 76.795 29.26 C 76.675 29.237 76.554 29.293 76.495 29.4 C 75.655 30.927 74.894 32.496 74.215 34.1 C 67.375 33.06 60.416 33.06 53.575 34.1 C 52.889 32.492 52.114 30.923 51.255 29.4 C 51.192 29.298 51.074 29.243 50.955 29.26 C 44.608 30.358 38.43 32.274 32.575 34.96 C 32.529 34.985 32.488 35.019 32.455 35.06 C 20.755 52.55 17.545 69.6 19.125 86.44 C 19.13 86.526 19.17 86.605 19.235 86.66 C 26.051 91.704 33.672 95.555 41.775 98.05 C 41.892 98.085 42.019 98.046 42.095 97.95 C 43.837 95.583 45.379 93.074 46.705 90.45 C 46.779 90.31 46.725 90.136 46.585 90.06 C 44.166 89.13 41.825 88.006 39.585 86.7 C 39.444 86.626 39.394 86.448 39.475 86.31 C 39.496 86.276 39.523 86.245 39.555 86.22 C 40.025 85.87 40.495 85.5 40.955 85.12 C 41.044 85.064 41.157 85.064 41.245 85.12 C 55.618 91.86 72.243 91.86 86.615 85.12 C 86.704 85.066 86.816 85.066 86.905 85.12 C 87.355 85.49 87.825 85.87 88.305 86.22 C 88.432 86.319 88.458 86.5 88.365 86.63 C 88.343 86.659 88.316 86.683 88.285 86.7 C 86.051 88.013 83.709 89.133 81.285 90.05 C 81.135 90.111 81.064 90.281 81.125 90.43 C 82.473 93.038 84.014 95.542 85.735 97.92 C 85.806 98.018 85.929 98.062 86.045 98.03 C 94.126 95.541 101.724 91.697 108.515 86.66 C 108.582 86.614 108.626 86.541 108.635 86.46 C 110.515 66.99 105.485 50.07 95.285 35.08 C 95.264 35.028 95.22 34.987 95.165 34.97 L 95.165 34.96 Z M 48.885 76.18 C 44.435 76.18 40.775 72.1 40.775 67.09 C 40.775 62.08 44.365 57.99 48.885 57.99 C 53.405 57.99 57.075 62.11 56.995 67.09 C 56.915 72.07 53.435 76.18 48.885 76.18 Z M 78.885 76.18 C 74.435 76.18 70.765 72.1 70.765 67.09 C 70.765 62.08 74.365 57.99 78.885 57.99 C 83.405 57.99 87.065 62.11 86.995 67.09 C 86.925 72.07 83.465 76.18 78.885 76.18 Z" style=""/>
</svg>