<svg id="Layer_1" data-name="Layer 1" xmlns="http://www.w3.org/2000/svg" viewBox="0 0 128 128"><defs><style>.cls-1{fill:none;stroke:#d7d7d6;stroke-miterlimit:10;stroke-width:3px;}.cls-2{fill:#d7d7d6;}</style></defs><title>ICONS</title><polygon class="cls-1" points="8.68 9.01 8.68 103.14 24.53 118.99 119.32 118.99 119.32 24.86 103.47 9.01 8.68 9.01"/><polygon class="cls-2" points="7.19 109.63 7.19 120.53 18.86 120.53 7.19 109.63"/><polygon class="cls-2" points="120.81 18.42 120.81 7.52 109.14 7.52 120.81 18.42"/><path class="cls-2" d="M80.63,52.83l4.58,5.4c.52.62,1,1.1,1.18,1.39a7.28,7.28,0,0,1,2.15,5.13c-.14,2.26-1.6,3.81-3,5.47L82.36,74,80.7,76a.42.42,0,0,0-.12.25.31.31,0,0,0,0,.25.35.35,0,0,0,.18.2.43.43,0,0,0,.25.07H97.79c2.56,0,5.77,2.14,5.59,5.4a5.62,5.62,0,0,1-1.67,3.95,5.75,5.75,0,0,1-4,1.64H71.49c-1.74,0-6.36.18-7.66-3.76a4.64,4.64,0,0,1-.12-2.56,11.53,11.53,0,0,1,1.76-3.48c1.32-2,2.73-3.9,4.15-5.79,1.82-2.49,3.67-4.88,5.51-7.41a.47.47,0,0,0,.1-.3.67.67,0,0,0-.1-.3L68.48,56.3a.73.73,0,0,0-.16-.14.8.8,0,0,0-.21,0,.73.73,0,0,0-.2,0,.27.27,0,0,0-.16.14c-1.78,2.37-9.6,12.87-11.26,15s-5.77,2.25-8.05,0L38,61a.6.6,0,0,0-.25-.13.5.5,0,0,0-.27,0,.46.46,0,0,0-.21.18.32.32,0,0,0-.06.25V81.14a6.66,6.66,0,0,1-1.21,4,6.81,6.81,0,0,1-3.31,2.5,5.52,5.52,0,0,1-2.67.25,5.63,5.63,0,0,1-2.48-1,5.46,5.46,0,0,1-1.76-2,5.68,5.68,0,0,1-.63-2.58V46.65a6.12,6.12,0,0,1,1.34-3.53,6.21,6.21,0,0,1,3.17-2.07,6.51,6.51,0,0,1,3.28,0,6.36,6.36,0,0,1,2.85,1.64l16,15.79a.61.61,0,0,0,.16.12.65.65,0,0,0,.2,0,.23.23,0,0,0,.18-.07.29.29,0,0,0,.16-.13L63.92,42.89a5.24,5.24,0,0,1,1.94-1.48,5.84,5.84,0,0,1,2.39-.55H97.84a6,6,0,0,1,2.35.5,6.15,6.15,0,0,1,1.93,1.42,5.45,5.45,0,0,1,1.17,2.07,5.76,5.76,0,0,1,.18,2.37,5.68,5.68,0,0,1-2,3.51,5.94,5.94,0,0,1-3.86,1.37H81.06a.37.37,0,0,0-.23.07.4.4,0,0,0-.16.18.47.47,0,0,0,0,.23A.2.2,0,0,0,80.63,52.83Z"/></svg>