<?xml version="1.0" encoding="utf-8"?>
<svg id="Layer_1" data-name="Layer 1" viewBox="0 0 128 128" xmlns="http://www.w3.org/2000/svg">
  <defs>
    <style>.cls-1,.cls-3{fill:#d7d7d6;}.cls-2{fill:none;stroke:#d7d7d6;stroke-miterlimit:10;stroke-width:3px;}.cls-3{fill-rule:evenodd;}</style>
  </defs>
  <title>ICONS</title>
  <path class="cls-1" d="M49,76.52c-4.45,0-8.11-4.08-8.11-9.09s3.59-9.1,8.11-9.1,8.19,4.12,8.11,9.1S53.55,76.52,49,76.52Zm30,0c-4.45,0-8.12-4.08-8.12-9.09s3.6-9.1,8.12-9.1,8.18,4.12,8.11,9.1S83.58,76.52,79,76.52Z"/>
  <polygon class="cls-2" points="8.68 9.01 8.68 103.14 24.53 118.99 119.32 118.99 119.32 24.86 103.47 9.01 8.68 9.01" style="fill: rgba(255, 176, 41, 0.3);"/>
  <polygon class="cls-1" points="7.19 109.63 7.19 120.53 18.86 120.53 7.19 109.63" style="fill: rgba(255, 176, 41, 0.74);"/>
  <polygon class="cls-1" points="120.81 18.42 120.81 7.52 109.14 7.52 120.81 18.42" style="fill: rgb(255, 176, 41);"/>
  <path class="cls-3" d="M107.3,35.09a33.92,33.92,0,0,1-10.21,3,19,19,0,0,0,7.82-10.58,34.08,34.08,0,0,1-11.3,4.64,17.14,17.14,0,0,0-13-6c-9.82,0-17.78,8.56-17.78,19.13a21.49,21.49,0,0,0,.46,4.36c-14.76-.8-27.86-8.41-36.63-20a20.26,20.26,0,0,0-2.4,9.62c0,6.63,4.11,12.48,8.87,15.92-2.91-.1-7.08-1-7.08-2.4V53c0,9.26,5.16,17,13.28,18.76a20.85,20.85,0,0,1-5.16.66,18.6,18.6,0,0,1-3.59-.35c2.27,7.6,8.71,13.13,16.48,13.3A34.33,34.33,0,0,1,25,93.56a35.51,35.51,0,0,1-4.28-.27,47.76,47.76,0,0,0,27.23,8.59c32.7,0,50.56-29.14,50.56-54.41,0-.83,0-1.67-.06-2.49a37.7,37.7,0,0,0,8.87-9.89"/>
</svg>