<svg id="Layer_1" data-name="Layer 1" xmlns="http://www.w3.org/2000/svg" viewBox="0 0 452.39 96.94"><defs><style>.cls-1{fill:#c6c6c6;}</style></defs><title>Button</title><path class="cls-1" d="M42.6,1.9H443.52V51.67L422,73.2h-.59l-187.21-.06L212.3,95H8.87V35.63Zm398,2.88H43.8l-32,32.05V92.16H211.1L233,70.26h.59l187.21,0,19.83-19.83Z"/><polygon class="cls-1" points="227.56 91.38 238.35 80.59 331.65 80.59 320.86 91.38 227.56 91.38"/><polygon class="cls-1" points="331.65 91.38 342.44 80.59 376.07 80.59 365.28 91.38 331.65 91.38"/><polygon class="cls-1" points="23.09 7.68 14.65 7.68 14.66 16.11 8.9 21.86 8.87 1.91 28.87 1.91 23.09 7.68"/></svg>